<?xml version="1.0" standalone="no"?><!DOCTYPE svg PUBLIC "-//W3C//DTD SVG 1.1//EN" "http://www.w3.org/Graphics/SVG/1.1/DTD/svg11.dtd"><svg t="1515488407655" class="icon" style="" viewBox="0 0 1024 1024" version="1.1" xmlns="http://www.w3.org/2000/svg" p-id="1872" xmlns:xlink="http://www.w3.org/1999/xlink" width="64" height="64"><defs><style type="text/css"></style></defs><path d="M510.143211 960.198905c-247.548002 0-448.198905-200.714348-448.198905-448.198905 0-247.609401 200.651926-448.198905 448.198905-448.198905 247.546979 0 448.198905 200.589504 448.198905 448.198905C958.343139 759.485581 757.691213 960.198905 510.143211 960.198905zM732.116745 492.616534c0-19.070334-15.44476-34.515095-34.515095-34.515095L559.727513 458.101439 559.727513 320.165904c0-19.008936-15.44476-34.452673-34.515095-34.452673l-34.453696 0c-19.070334 0-34.452673 15.443737-34.452673 34.452673l0 137.935536L318.371536 458.101439c-19.008936 0-34.516118 15.44476-34.516118 34.515095l0 34.390251c0 19.132756 15.507182 34.514071 34.516118 34.514071l137.935536 0 0 137.936559c0 19.008936 15.382339 34.390251 34.452673 34.390251l34.453696 0c19.070334 0 34.515095-15.381315 34.515095-34.390251L559.728536 561.52188 697.60165 561.52188c19.071358 0 34.515095-15.381315 34.515095-34.514071L732.116745 492.616534z" p-id="1873"></path></svg>